<svg xmlns="http://www.w3.org/2000/svg" width="189" height="90" viewBox="0 0 189 90">
    <g fill="none" fill-rule="evenodd">
        <path fill="#FFF" fill-opacity=".01" d="M0 0h189v90H0z"/>
        <g fill-rule="nonzero">
            <g transform="translate(67.331 1.125)">
                <circle cx="27" cy="27" r="27" fill="#00AED6"/>
                <path fill="#FFF" d="M30.029 22.5H27.23a.226.226 0 0 1-.231-.22v-3.964a.28.28 0 0 0-.536-.14l-2.81 6.115a.33.33 0 0 0 .317.459h2.798a.225.225 0 0 1 .231.22v3.964a.28.28 0 0 0 .536.14l2.81-6.115a.33.33 0 0 0-.317-.459z"/>
                <path fill="#FFF" d="M38.61 14.368a4.198 4.198 0 0 0-2.983-3.344 41.818 41.818 0 0 0-17.254 0 4.197 4.197 0 0 0-2.983 3.343 104.729 104.729 0 0 0 0 25.265 4.198 4.198 0 0 0 2.983 3.343 41.812 41.812 0 0 0 17.254 0 4.197 4.197 0 0 0 2.983-3.343c1.02-8.39 1.02-16.874 0-25.264zM27 41.625a2.25 2.25 0 1 1 0-4.5 2.25 2.25 0 0 1 0 4.5zm8.55-10.242c.002.288-.05.574-.153.843a3.217 3.217 0 0 1-2.876 2.293c-3.678.185-7.364.185-11.042 0a3.217 3.217 0 0 1-2.876-2.293 2.336 2.336 0 0 1-.154-.844c-.128-4.586-.051-9.198.205-13.811.024-.277.076-.55.155-.817a3.543 3.543 0 0 1 1.104-1.634c.23-.223.5-.402.796-.527.295-.152.618-.242.95-.264.41-.026.847-.08 1.258-.08a52.48 52.48 0 0 1 7.883-.025c.514.026 1.027.052 1.541.105.331.022.655.112.95.264.295.125.565.304.796.527.516.43.898.996 1.104 1.634.079.267.13.54.154.817.257 4.613.334 9.225.206 13.812z"/>
            </g>
            <g fill="#000">
                <path d="M40.98 82.47a5.804 5.804 0 0 0 5.044 2.466c2.353 0 4.08-1.502 4.08-3.543v-1.077h-.055a6.409 6.409 0 0 1-4.847 1.814 7.852 7.852 0 1 1-.142-15.7 6.753 6.753 0 0 1 4.989 1.756h.056v-1.473h4.024v14.624c0 4.25-3.372 7.198-8.105 7.198a9.686 9.686 0 0 1-8.05-3.57l3.006-2.495zm8.956-9.097c0-1.701-1.929-3.26-4.082-3.26-2.721 0-4.535 1.645-4.535 4.11a3.97 3.97 0 0 0 4.365 4.223c2.352 0 4.252-1.474 4.252-3.317v-1.756zM64.677 66.288c4.903 0 8.474 3.485 8.474 7.935 0 4.45-3.57 7.935-8.474 7.935a7.953 7.953 0 1 1 0-15.87zm0 3.683a4.251 4.251 0 1 0 4.28 4.252 4.07 4.07 0 0 0-4.28-4.252zM75.423 66.713h4.024v1.331h.057a6.691 6.691 0 0 1 4.846-1.756 7.937 7.937 0 0 1 .029 15.87 7.27 7.27 0 0 1-4.705-1.587h-.057v7.539h-4.194V66.713zM83.699 70c-2.21 0-4.082 1.559-4.082 3.26v1.898c0 1.814 1.814 3.316 4.11 3.316A4.237 4.237 0 0 0 83.7 70zM94.104 66.713h4.195v7.964a3.319 3.319 0 0 0 3.684 3.683 3.65 3.65 0 0 0 3.911-3.683v-7.964h4.195v15.02h-4.053v-1.417h-.057a7.064 7.064 0 0 1-5.073 1.842c-4.28 0-6.802-2.522-6.802-6.858v-8.587zM112.898 61.044h4.195v20.69h-4.195zM122.99 75.924c.595 1.927 2.125 2.89 4.534 2.89 2.183 0 3.43-.482 3.43-1.304 0-.878-.907-1.275-3.713-1.7-5.498-.85-7.453-2.182-7.453-4.875 0-2.778 2.777-4.647 6.915-4.647 3.769 0 7.198 1.927 7.992 4.534l-3.826 1.162a4.262 4.262 0 0 0-4.195-2.352c-1.728 0-2.862.51-2.862 1.303 0 .794.793 1.078 4.109 1.644 5.073.794 7.086 2.182 7.086 4.903 0 2.805-3.005 4.676-7.511 4.676a10.326 10.326 0 0 1-5.61-1.445 5.945 5.945 0 0 1-2.835-3.854l3.94-.935zM143.173 72.777c2.749-.368 3.57-.764 3.57-1.53 0-.992-1.047-1.587-2.663-1.587a3.542 3.542 0 0 0-3.741 2.692l-3.969-.822c.567-3.06 3.714-5.242 7.596-5.242 4.393 0 7.114 2.239 7.114 5.894v9.551h-3.77V80.09h-.056a6.198 6.198 0 0 1-5.073 2.068c-3.317 0-5.612-1.813-5.612-4.478 0-2.806 1.871-4.25 6.604-4.903zm3.911 1.588h-.057c-.368.538-1.162.85-3.202 1.218-2.466.454-3.345.935-3.345 1.814 0 .907.738 1.304 2.324 1.304 2.41 0 4.28-1.105 4.28-2.551v-1.785z"/>
            </g>
        </g>
    </g>
</svg>
