<svg xmlns="http://www.w3.org/2000/svg" width="189" height="90" viewBox="0 0 189 90">
    <g fill="none" fill-rule="evenodd">
        <path fill="#FFF" fill-opacity=".01" d="M0 0h189v90H0z"/>
        <g fill-rule="nonzero" transform="translate(67.891 1.125)">
            <circle cx="27" cy="27" r="27" fill="#EE2737"/>
            <path fill="#FFF" d="M21.938 38.25a2.813 2.813 0 1 0 2.812 2.813 2.8 2.8 0 0 0-2.813-2.813z"/>
            <circle cx="33.188" cy="41.063" r="2.813" fill="#FFF"/>
            <path fill="#FFF" d="M38.653 18.902a97.564 97.564 0 0 0-22.423-.115l-.444-2.069a4.069 4.069 0 0 0-3.885-3.218 1.84 1.84 0 0 0 0 3.678c.222 0 .444.115.444.345l.444 1.954c.444 2.529 1.776 9.54 2.442 11.494a7.204 7.204 0 0 0 6.439 4.943c3.44.115 6.993.115 10.434 0a7.552 7.552 0 0 0 6.438-4.943 69.202 69.202 0 0 0 1.887-9.31 2.272 2.272 0 0 0-1.776-2.759zM24.75 30.52a1.125 1.125 0 1 1-2.25 0v-6.923a1.125 1.125 0 1 1 2.25 0v6.923zm6.75 0a1.142 1.142 0 0 1-1.125 1.154 1.226 1.226 0 0 1-1.125-1.154v-6.923a1.142 1.142 0 0 1 1.125-1.154c.61.05 1.091.542 1.125 1.154v6.923z"/>
        </g>
        <g fill="#000" fill-rule="nonzero">
            <path d="M45.48 82.125a5.804 5.804 0 0 0 5.045 2.465c2.353 0 4.082-1.502 4.082-3.543v-1.076h-.057a6.407 6.407 0 0 1-4.848 1.813 7.852 7.852 0 1 1-.14-15.7 6.75 6.75 0 0 1 4.988 1.757h.057v-1.474h4.023v14.624c0 4.25-3.372 7.198-8.105 7.198a9.69 9.69 0 0 1-8.05-3.57l3.005-2.494zm8.956-9.098c0-1.7-1.928-3.26-4.081-3.26-2.72 0-4.535 1.645-4.535 4.11a3.97 3.97 0 0 0 4.366 4.224c2.35 0 4.25-1.475 4.25-3.317v-1.757zM69.179 65.942c4.902 0 8.473 3.486 8.473 7.936 0 4.449-3.57 7.935-8.473 7.935a7.953 7.953 0 1 1 0-15.87zm0 3.684a4.251 4.251 0 1 0 4.278 4.252 4.07 4.07 0 0 0-4.278-4.252zM79.924 66.367h3.684v1.445h.058a6.543 6.543 0 0 1 9.38.227h.057a6.567 6.567 0 0 1 4.902-2.097c4.054 0 6.86 2.664 6.86 6.461v8.985h-4.054v-8.332a3.236 3.236 0 1 0-6.461 0v8.332h-3.883v-8.332a3.25 3.25 0 1 0-6.49 0v8.332h-4.053v-15.02zM113.77 72.432c2.75-.368 3.57-.765 3.57-1.53 0-.993-1.047-1.587-2.662-1.587a3.543 3.543 0 0 0-3.742 2.692l-3.968-.822c.567-3.061 3.713-5.243 7.596-5.243 4.392 0 7.113 2.24 7.113 5.894v9.552h-3.77v-1.644h-.056a6.198 6.198 0 0 1-5.073 2.069c-3.316 0-5.612-1.814-5.612-4.478 0-2.806 1.871-4.25 6.604-4.903zm3.911 1.587h-.057c-.368.539-1.162.85-3.202 1.219-2.466.453-3.344.935-3.344 1.813 0 .908.737 1.305 2.323 1.305 2.41 0 4.28-1.106 4.28-2.551v-1.786zM124.373 66.367h3.939v1.445h.057a5.81 5.81 0 0 1 4.42-1.728c.838.016 1.668.15 2.467.396l-.879 3.77a8.607 8.607 0 0 0-2.181-.312c-2.297 0-3.628 1.53-3.628 4.591v6.859h-4.195v-15.02zM143.563 69.938v6.349c0 .935.312 1.218 1.53 1.218h2.75v3.883h-3.175c-3.77 0-5.3-1.473-5.3-4.846v-6.604h-3.541v-3.57h3.541v-3.77h4.195v3.77h4.847v3.57h-4.847z"/>
        </g>
    </g>
</svg>
